<svg xmlns="http://www.w3.org/2000/svg" xmlns:xlink="http://www.w3.org/1999/xlink" width="407" height="480" viewBox="0 0 407 480">
  <defs>
    <path id="subscribe-—-1-—-desktop-a" d="M10.511404,35.781722 C33.6801908,52.0131408 46.8207432,54.8134495 59.2700153,66.8962628 C71.7187685,78.9790762 74.4854465,89.6617352 84.8593209,95.8846434 C95.2337144,102.107552 104.57015,100.759255 109.757346,96.2476463 C116.327623,90.3877412 112.177865,82.0905303 104.57015,67.9334142 C88.6634382,37.8560247 41.2879063,3.63002977 23.3057973,0.881578657 C5.66984736,-1.86687245 2.55752932,4.35603572 0.828809724,12.2902436 C-1.24606897,20.5874545 4.28676789,31.2701135 10.511404,35.781722 Z"/>
    <path id="subscribe-—-1-—-desktop-c" d="M181.496355,11.2530923 C181.496355,11.2530923 176.309158,-1.55572704 163.168606,0.518575681 C150.028053,2.5928784 144.495217,7.41563223 134.120823,7.77863521 C123.74643,8.14163819 89.8576093,9.17878955 77.062697,15.4016977 C64.2683037,21.5727483 61.1559856,31.9442619 45.9405545,36.4558704 C30.7251234,40.9674788 14.1260938,39.5673244 4.09785947,64.7701025 C-5.9303749,90.0247382 6.86453739,111.441914 11.3599349,122.124573 C16.8927718,135.607541 24.8461274,144.941903 41.7907971,142.193452 C58.3893077,139.756146 84.3247724,170.870687 84.3247724,170.870687 L96.0822454,167.085084 C104.7274,164.284776 107.147919,153.602117 100.577643,147.379208 C91.5868478,139.081998 80.5211741,127.31033 72.9134586,114.916371 C57.6980275,90.3358836 56.314429,61.6586484 57.3518684,57.873046 C63.9221446,34.3815676 86.7452912,34.0185647 95.044806,33.7074192 C103.344321,33.3444163 105.07304,32.9814133 105.07304,32.9814133 C105.07304,32.9814133 92.2781281,35.781722 100.577643,68.6075626 C108.877158,101.433403 128.587986,140.119149 138.96238,146.342057 C149.336254,152.564965 163.514246,148.41636 165.589125,148.053357 C207.77746,142.8676 214.002096,163.610627 216.768255,162.210473 C261.378666,138.044846 238.208322,102.107552 238.208322,102.107552 C238.208322,102.107552 220.572372,119.064976 191.178949,96.5587918 C178.729677,86.9132841 162.131167,69.9558593 162.131167,33.7074192 C162.476807,12.601389 181.496355,11.2530923 181.496355,11.2530923 Z"/>
  </defs>
  <g fill="none" fill-rule="evenodd" transform="translate(0 1)">
    <path fill="#E2603D" d="M317.794296,250.886914 C317.794296,250.886914 322.636371,244.664006 326.440489,245.701158 C330.244606,246.738309 339.928757,270.229787 343.385158,283.349752 C346.84156,296.469717 350.993393,308.915533 349.265192,322.035498 C346.84156,341.430228 336.12464,346.92713 329.89689,341.067225 C327.478447,338.62992 327.130731,332.095866 326.092773,328.258406 C324.712288,322.761504 322.984087,320.324198 322.984087,320.324198 C322.984087,320.324198 326.788205,283.038607 325.054814,274.741396 C323.326614,266.444185 317.794296,250.886914 317.794296,250.886914 Z"/>
    <path fill="#9AF4DC" d="M163.220504,229.780884 C157.687667,234.655496 152.84611,235.692647 150.425592,236.003792 C149.042512,237.403947 147.658914,238.804101 146.275834,240.152398 C143.163516,244.664006 137.976319,251.924066 130.368604,257.420968 C127.602445,260.895425 125.181926,264.681027 123.452687,268.155485 C113.078294,289.209657 103.3957,300.307177 102.01262,313.064138 C101.66698,316.901599 102.01262,320.998346 103.3957,325.509955 C105.124938,331.36986 106.162378,328.621409 106.162378,346.252982 C106.162378,355.224341 104.087499,363.521552 102.01262,370.107463 C102.704419,370.107463 103.3957,370.107463 104.087499,370.418609 C108.237256,372.492911 139.013759,385.301731 154.575349,411.54166 C159.416387,419.475868 164.257943,425.024628 165.986663,430.210385 C171.865659,423.987477 179.819014,415.016117 187.42673,403.607452 C197.109324,389.450336 200.912922,369.381457 200.912922,353.513042 C200.912922,349.364436 200.567282,345.578834 199.875483,342.104377 C198.146764,333.133017 209.212437,326.910109 212.670395,321.724352 C223.044789,305.804079 219.932471,304.455782 245.867936,286.098203 C256.587969,278.526998 264.195685,269.192636 269.382881,259.495271 C281.485995,237.403947 281.485995,214.586617 281.485995,214.586617 C281.485995,214.586617 195.726245,200.429501 163.220504,229.780884 Z"/>
    <path fill="#98A2F4" d="M165.640504,430.573388 C163.911265,425.387631 159.070227,419.838871 154.22919,411.904663 C138.6676,385.612876 108.236737,372.855914 103.74134,370.781612 C103.049541,370.418609 102.35826,370.418609 101.666461,370.418609 C98.5541431,370.418609 96.1336243,373.893066 96.1336243,373.893066 C96.1336243,373.893066 97.5167038,374.930217 99.2459423,376.641517 C106.508018,382.55328 123.452168,396.710396 126.564487,399.82185 C146.967114,419.475868 152.499951,432.284687 153.537391,439.90775 C154.57483,446.441804 151.808152,449.242112 151.808152,449.242112 C151.808152,449.242112 158.032788,450.953412 163.911265,441.256047 C166.332303,437.107441 166.677943,433.684842 165.640504,430.573388 Z"/>
    <path fill="#9AF4DC" d="M329.554364,286.824209 C328.858932,273.341241 318.142012,242.952706 310.878898,245.338155 C303.616823,247.77546 308.80402,256.072671 300.850664,258.146974 C292.896789,260.221277 282.176756,271.629942 274.56904,268.155485 C270.765442,266.444185 269.382362,262.606725 268.690563,259.495271 C263.503366,269.192636 255.895651,278.526998 245.175617,286.098203 C218.894513,304.455782 222.352471,305.492934 211.978596,321.724352 C208.520638,326.910109 197.454445,333.133017 199.183684,342.104377 C199.875483,345.578834 200.221123,349.364436 200.221123,353.513042 C206.445759,357.972792 216.128354,360.410098 230.997626,357.298644 C268.344923,349.727439 315.718379,320.687201 315.718379,320.687201 C315.718379,320.687201 316.066095,321.361349 323.326614,322.035498 C330.592322,322.761504 330.592322,300.307177 329.554364,286.824209 Z"/>
    <path fill="#E2603D" d="M41.8421761,362.121398 C50.1416908,355.89849 60.8617244,354.18719 79.8807538,363.884555 C98.9003022,373.530063 126.564487,398.784698 138.321959,411.904663 C150.079432,425.024628 157.341508,437.470444 156.304068,442.293198 C155.266629,447.16781 143.854796,459.250623 143.854796,459.250623 C143.854796,459.250623 146.621474,438.144593 129.331164,419.475868 C113.770093,402.570301 71.9273982,368.344306 58.7868457,366.270003 C43.5714146,363.884555 35.9636991,372.492911 35.9636991,372.492911 C35.9636991,372.492911 37.0011384,365.595855 41.8421761,362.121398 Z"/>
    <path fill="#FFF" d="M44.2632139,397.384544 C67.4320006,413.615963 80.5725531,416.416272 93.0218252,428.499085 C105.470578,440.581898 108.237256,451.264557 118.611131,457.487466 C128.985524,463.710374 138.321959,462.362077 143.509156,457.850469 C150.079432,451.990563 145.929675,443.693352 138.321959,429.536236 C122.415248,399.458847 75.0397162,365.232852 57.0576072,362.484401 C39.4216572,359.73595 36.3093392,365.958858 34.5806196,373.893066 C32.5057409,382.190277 38.0385778,392.872936 44.2632139,397.384544 Z"/>
    <path fill="#98A2F4" d="M290.13063,74.3118951 C283.214195,73.6377467 257.97053,74.9860434 245.867417,77.7863521 C228.577107,81.9349576 209.211918,82.9721089 190.19237,87.4318598 C163.911265,93.6547679 117.573173,111.960489 86.1048709,132.340514 C54.6365694,152.772396 33.5426613,192.495293 33.5426613,192.495293 C17.9810711,219.098225 22.1308285,247.77546 43.5708957,263.643876 C60.5155653,276.089692 100.629022,269.555639 118.956771,263.643876 C123.106528,262.295579 126.910127,260.221277 130.714244,257.420968 C135.209641,251.561063 140.742478,245.701158 146.620955,240.152398 C148.350194,237.76695 149.041474,236.003792 149.041474,236.003792 C149.041474,236.003792 149.733273,236.003792 150.770713,236.003792 C153.191231,236.003792 158.032788,234.966641 163.565625,229.780884 C195.725726,200.066498 281.485476,214.586617 281.485476,214.586617 C281.485476,214.586617 281.139316,201.466652 280.448036,197.318047 C279.410597,191.458141 275.952639,173.463565 275.952639,173.463565 L284.251634,174.500717 C284.251634,174.500717 290.13063,178.338177 300.850145,170.040966 C321.598413,154.120692 337.85284,144.78633 341.656958,121.294852 C346.84156,88.8320141 324.712288,78.4605005 290.13063,74.3118951 Z"/>
    <path fill="#9ECBE3" d="M146.275834,240.152398 C140.396838,245.701158 134.864001,251.561063 130.368604,257.420968 C137.630679,251.924066 143.163516,244.664006 146.275834,240.152398 Z"/>
    <path fill="#3844E5" d="M245.867936,77.7863521 C245.867936,77.7863521 240.680739,64.9775328 227.540186,67.0518355 C214.399634,69.1261382 208.866797,73.9488921 198.492404,74.3118951 C188.11801,74.674898 154.22919,75.7120494 141.434277,81.9349576 C128.639884,88.1060082 125.527566,98.4775218 110.312135,102.98913 C95.0967039,107.500739 78.4976744,106.100584 68.46944,131.303362 C58.4412056,156.557998 71.2361179,177.975174 75.7315154,188.657833 C81.2643523,202.1408 89.217708,211.475163 106.162378,208.726711 C122.760888,206.289406 148.696353,237.403947 148.696353,237.403947 L160.453826,233.618344 C169.098981,230.818035 171.5195,220.135376 164.949223,213.912468 C155.958428,205.615257 144.892755,193.843589 137.285039,181.449631 C122.069608,156.869143 120.68601,128.191908 121.723449,124.406306 C128.293725,100.914827 151.116872,100.551824 159.416387,100.240679 C167.715901,99.8776761 169.444621,99.5146731 169.444621,99.5146731 C169.444621,99.5146731 156.649709,102.314982 164.949223,135.140822 C173.248738,167.966663 192.959567,206.652409 203.33396,212.875317 C213.707835,219.098225 227.885827,214.94962 229.960705,214.586617 C272.14904,209.40086 278.373676,230.143887 281.139835,228.743733 C325.750246,204.578106 302.579903,168.640811 302.579903,168.640811 C302.579903,168.640811 284.943953,185.598236 255.55053,163.092052 C243.101258,153.446544 226.502747,136.489119 226.502747,100.240679 C226.848387,79.1346489 245.867936,77.7863521 245.867936,77.7863521 Z"/>
    <path fill="#E897A3" d="M128.639365,220.135376 C128.639365,220.135376 131.751683,215.623768 135.900922,214.586617 C140.050679,213.549465 142.471198,213.549465 143.854796,216.660919 C145.237876,219.772373 143.854796,221.483673 143.854796,221.483673 C143.854796,221.483673 145.929675,218.372219 148.004554,223.246831 C150.079432,228.069584 146.967114,229.469739 146.967114,229.469739 C146.967114,229.469739 149.733273,229.106736 149.733273,233.618344 C149.733273,238.078095 146.275315,240.152398 146.275315,240.152398 C146.275315,240.152398 150.425073,241.915555 142.471717,249.48676 C137.28452,254.672517 119.99421,263.332731 119.99421,263.332731 C119.99421,263.332731 128.293206,247.77546 127.601926,231.544041 C127.601926,224.595127 128.639365,220.135376 128.639365,220.135376 Z"/>
    <g transform="translate(33.752 361.603)">
      <mask id="subscribe-—-1-—-desktop-b" fill="#fff">
        <use xlink:href="#subscribe-—-1-—-desktop-a"/>
      </mask>
      <g stroke="#45A0D4" stroke-width="1.244" mask="url(#subscribe-—-1-—-desktop-b)">
        <g transform="translate(-58.126 -36.819)">
          <line x1="78.319" x2="140.91" y1="126.169" y2="46.361"/>
          <line x1="85.927" x2="148.864" y1="130.629" y2="50.82"/>
          <line x1="93.881" x2="156.472" y1="135.504" y2="55.695"/>
          <line x1="101.488" x2="164.425" y1="139.964" y2="60.155"/>
          <line x1="109.442" x2="172.033" y1="144.838" y2="64.978"/>
          <line x1="117.05" x2="179.987" y1="149.298" y2="69.489"/>
          <line x1="125.003" x2="187.594" y1="154.173" y2="74.001"/>
          <line x1="132.611" x2="195.548" y1="158.632" y2="78.824"/>
          <line x1="140.564" x2="203.155" y1="163.144" y2="83.335"/>
          <line x1="148.173" x2="211.109" y1="167.967" y2="88.158"/>
          <line x1=".513" x2="63.45" y1="79.861" y2=".052"/>
          <line x1="8.121" x2="71.058" y1="84.372" y2="4.512"/>
          <line x1="16.075" x2="79.011" y1="89.195" y2="9.386"/>
          <line x1="23.683" x2="86.619" y1="93.655" y2="13.846"/>
          <line x1="31.636" x2="94.573" y1="98.529" y2="18.358"/>
          <line x1="39.243" x2="102.18" y1="102.989" y2="23.18"/>
          <line x1="47.198" x2="110.134" y1="107.864" y2="27.692"/>
          <line x1="54.804" x2="117.741" y1="112.323" y2="32.515"/>
          <line x1="62.759" x2="125.695" y1="116.835" y2="37.026"/>
          <line x1="70.366" x2="133.302" y1="121.658" y2="41.849"/>
        </g>
      </g>
    </g>
    <path stroke="#45A0D4" stroke-width="1.244" d="M352.031351,283.038607 C348.56976,269.866784 338.890799,246.738309 335.086681,245.338155 C332.320523,244.301003 327.820973,245.027009 325.40253,245.338155 C325.750246,245.338155 326.092773,245.338155 326.440489,245.338155 C330.244606,246.738309 339.928757,269.866784 343.385158,283.038607 C346.84156,296.158571 350.993393,308.604388 349.265192,321.724352 C347.189276,336.91862 340.271283,343.504531 334.391249,342.778525 C345.803601,345.578834 355.487752,340.030074 357.906195,321.724352 C359.639586,308.604388 355.487752,296.158571 352.031351,283.038607 Z"/>
    <line x1="327.826" x2="337.853" y1="316.176" y2="311.716" stroke="#45A0D4" stroke-width="1.244"/>
    <line x1="341.657" x2="322.636" y1="316.176" y2="323.436" stroke="#45A0D4" stroke-width="1.244"/>
    <line x1="341.657" x2="324.365" y1="322.035" y2="328.258" stroke="#45A0D4" stroke-width="1.244"/>
    <path stroke="#600" stroke-linejoin="round" stroke-width="1.244" d="M317.794296 316.175593C317.794296 316.175593 318.832254 318.975901 319.870212 314.10129 320.908171 309.278536 321.946129 289.209657 317.794296 273.704244M316.413811 269.192636C316.413811 269.192636 315.718379 267.118333 313.990178 264.006879 312.609694 261.569573 311.571736 260.895425 311.571736 260.895425"/>
    <g transform="translate(64.372 66.533)">
      <mask id="subscribe-—-1-—-desktop-d" fill="#fff">
        <use xlink:href="#subscribe-—-1-—-desktop-c"/>
      </mask>
      <g stroke="#9ECBE3" stroke-linejoin="round" stroke-width="1.244" mask="url(#subscribe-—-1-—-desktop-d)">
        <path d="M12.0901386 79.1865064C16.239896 93.3436225-3.47145162 99.2553853.678305766 113.049498 4.82806316 127.206614 24.8850509 120.983706 29.0342893 135.19268 33.1840467 149.349796 13.4732181 155.209701 17.6229754 169.366817 21.7727328 183.523933 41.8292016 177.301025 45.978959 191.509999 50.1287164 205.667115 30.4178877 211.52702 34.5671262 225.372991 38.7168835 239.530107 58.7738713 233.307199 62.9236287 247.464315 67.0728671 261.621431 47.3620384 267.533194 51.5117958 281.327307 55.6615532 295.484423 75.718022 289.261515 79.8677794 303.470488 84.0175367 317.627604 64.3067081 323.48751 68.4564655 337.644626 72.6062229 351.801742 92.6626916 345.578834 96.812449 359.787807 100.962206 373.944923 81.2513778 379.804829 85.4006162 393.961945 89.5503736 408.170918 109.607361 401.94801 113.757119 416.105126M42.5210008 70.5781501C46.6707582 84.7352662 26.9594106 90.5951714 31.109168 104.441142 35.2589254 118.598258 55.3153941 112.37535 59.4651515 126.532466 63.6149089 140.689582 43.9040803 146.549487 48.0538377 160.758461 52.2035951 174.915577 72.2600638 168.692669 76.4098212 182.849785 80.5595786 197.006901 60.84875 202.918664 64.9979884 216.712777 69.1477458 230.869893 89.2047335 224.646985 93.3544909 238.855959 97.5037293 253.013075 77.7929007 258.87298 81.9426581 272.718951 86.0924154 286.876067 106.148884 280.653158 110.298642 294.810275 114.448399 308.967391 94.7375703 314.827296 98.8873277 329.036269 103.037085 343.193386 123.093554 336.970477 127.243311 351.127593 131.393069 365.28471 111.68224 371.196472 115.831478 385.353588 119.981236 399.510704 140.038224 393.287796 144.187981 407.444912M72.951863 61.5549333C77.1011014 75.7120494 57.3902728 81.6238121 61.5400302 95.4179253 65.6897876 109.575041 85.7462563 103.403991 89.8960137 117.561107 94.0457711 131.718223 74.3349425 137.578128 78.4846999 151.735244 82.6344573 165.944218 102.690926 159.72131 106.840683 173.878426 110.990441 188.035542 91.2796122 193.895447 95.4288506 207.741418 99.578608 221.898534 119.635596 215.675626 123.785353 229.832742 127.934592 243.989858 108.223763 249.901621 112.37352 263.695734 116.523278 277.85285 136.579746 271.681799 140.729504 285.838915 144.879261 299.996031 125.168433 305.855937 129.31819 320.013053 133.467947 334.222026 153.524416 327.999118 157.674173 342.156234 161.823931 356.31335 142.112583 362.173255 146.262341 376.330372 150.412098 390.539345 170.469086 384.316437 174.618324 398.473553M103.382725 52.946577C107.532483 67.1036931 87.821654 72.9635983 91.9714114 86.809569 96.1206498 100.966685 116.177638 94.7437769 120.327395 108.900893 124.477152 123.058009 104.765805 128.969772 108.915562 143.126888 113.065319 157.284004 133.122307 151.061096 137.271546 165.218212 141.421303 179.375328 121.710474 185.287091 125.860232 199.081204 130.009989 213.23832 150.066458 207.067269 154.216215 221.224385 158.365973 235.381501 138.655144 241.241407 142.804382 255.087377 146.95414 269.244493 167.011128 263.021585 171.160885 277.178701 175.310123 291.335817 155.599295 297.24758 159.749052 311.404696 163.89881 325.561812 183.955278 319.338904 188.105036 333.49602 192.254793 347.653136 172.543964 353.564899 176.693722 367.722015 180.843479 381.879131 200.899948 375.656223 205.049705 389.813339M133.813587 44.2863631C137.963345 58.4434792 118.252516 64.355242 122.402274 78.1493551 126.551512 92.3064712 146.6085 86.083563 150.758257 100.292537 154.908015 114.449653 135.196667 120.309558 139.346424 134.466674 143.496182 148.62379 163.553169 142.452739 167.702408 156.609856 171.852165 170.766972 152.141337 176.626877 156.291094 190.472848 160.440851 204.629964 180.49732 198.407055 184.647078 212.564172 188.796835 226.721288 169.086006 232.63305 173.235245 246.427163 177.385002 260.58428 197.44199 254.361371 201.591747 268.570345 205.740986 282.727461 186.030157 288.587366 190.179914 302.744482 194.329672 316.901599 214.386141 310.67869 218.535898 324.887664 222.685655 339.04478 202.974827 344.904685 207.124584 359.061801 211.274341 373.270775 231.33081 367.047867 235.480568 381.204983M164.59009 35.3150039C168.739847 49.4721199 149.029019 55.3320251 153.178257 69.1779958 157.328014 83.3351119 177.385002 77.1122037 181.534759 91.2693198 185.683998 105.478293 165.973169 111.338199 170.122927 125.495315 174.272684 139.652431 194.329153 133.429523 198.47891 147.586639 202.628668 161.795612 182.917839 167.655518 187.067596 181.449631 191.217354 195.658604 211.273822 189.435696 215.42358 203.592812 219.573337 217.749928 199.862509 223.609834 204.011747 237.455804 208.161504 251.61292 228.218492 245.390012 232.36825 259.547128 236.517488 273.756102 216.806659 279.616007 220.956417 293.773123 225.106174 307.930239 245.162643 301.707331 249.3124 315.864447 253.462158 330.073421 233.751329 335.933326 237.901086 350.090442 242.050325 364.247558 262.107313 358.02465 266.25707 372.233624M195.021471 26.65479C199.171228 40.8637636 179.4604 46.7236688 183.610157 60.5177819 187.759915 74.7267556 207.816383 68.5038474 211.966141 82.6609635 216.115898 96.8180796 196.405069 102.677985 200.554308 116.835101 204.704065 131.044075 224.761053 124.821166 228.910291 138.978282 233.060049 153.135399 213.34922 158.995304 217.498978 172.841274 221.648735 186.99839 241.705204 180.775482 245.854961 194.932598 250.004718 209.141572 230.29389 215.001477 234.443647 228.79559 238.592886 242.952706 258.649873 236.781656 262.799631 250.938772 266.949388 265.095888 247.238041 270.955793 251.387798 285.112909 255.537555 299.321883 275.594543 293.098975 279.743781 307.256091 283.893539 321.413207 264.18271 327.273112 268.332468 341.482086 272.482225 355.639202 292.538694 349.416294 296.688451 363.57341M225.452333 18.0464337C229.602091 32.2035498 209.891262 38.063455 214.041019 51.9094256 218.190777 66.0665417 238.247246 59.8436336 242.397003 74.0007496 246.54676 88.1578657 226.835413 94.0696285 230.98517 108.226745 235.134927 122.383861 255.191915 116.160952 259.341154 130.318069 263.490911 144.527042 243.780082 150.386947 247.92984 164.181061 252.079597 178.338177 272.136066 172.167126 276.285823 186.324242 280.435581 200.481358 260.724752 206.341263 264.874509 220.187234 269.023748 234.34435 289.080736 228.121442 293.230493 242.278558 297.38025 256.435674 277.668903 262.347437 281.81866 276.504553 285.968418 290.661669 306.025405 284.438761 310.174644 298.595877 314.324401 312.752993 294.613572 318.664756 298.76333 332.821872 302.913087 346.978988 322.971113 340.75608 327.117756 354.913196M255.883195 9.02321684C260.032953 23.2321905 240.322124 29.0920957 244.471363 42.8862088 248.62112 57.0951824 268.678108 50.8722743 272.827865 65.0293904 276.977104 79.1865064 257.266275 85.0464116 261.416032 99.2553853 265.56579 113.412501 285.622258 107.189593 289.772016 121.346709 293.921773 135.503825 274.210945 141.363731 278.360702 155.209701 282.50994 169.366817 302.566928 163.143909 306.716686 177.301025 310.866443 191.509999 291.155095 197.369904 295.304853 211.164017 299.45461 225.372991 319.511598 219.150083 323.661355 233.307199 327.813188 247.464315 308.099765 253.32422 312.249522 267.533194 316.39928 281.69031 336.454192 275.467402 340.606025 289.624518 344.752668 303.781634 325.04184 309.641539 329.193673 323.850513 333.345506 338.007629 353.398861 331.784721 357.550695 345.941837M286.659698.414860545C290.809455 14.5719766 271.098627 20.4318818 275.248384 34.2778525 279.397622 48.4349686 299.45461 42.2120604 303.604367 56.3691765 307.754125 70.5781501 288.042777 76.4380553 292.192535 90.5951714 296.342292 104.752288 316.39928 98.5293793 320.548518 112.686495 324.699314 126.895469 304.987447 132.755374 309.137204 146.549487 313.286962 160.758461 333.345506 154.535553 337.49215 168.692669 341.643983 182.849785 321.933155 188.70969 326.079798 202.555661 330.231631 216.712777 350.290176 210.489869 354.43682 224.646985 358.588653 238.855959 338.877824 244.715864 343.024468 258.87298 347.176301 273.030096 367.234846 266.807188 371.381489 280.964304 375.533323 295.173277 355.822494 301.033183 359.969137 315.190299 364.120971 329.347415 384.179515 323.124507 388.326159 337.33348" transform="translate(-73.695 -122.902)"/>
      </g>
    </g>
    <path fill="#E897A3" d="M135.901441,94.0177709 C135.901441,94.0177709 133.826562,99.5146731 135.901441,107.500739 C137.976319,115.434947 143.509156,120.620703 146.967114,121.294852 C151.116872,121.969 157.687148,119.220549 159.070227,111.649344 C160.453826,104.026282 161.836905,94.3289163 154.57483,90.5433139 C147.313273,86.7577114 136.59324,90.5433139 135.901441,94.0177709 Z"/>
    <path fill="#E2603D" d="M135.555282,94.0177709 C135.555282,94.0177709 139.01324,81.2089516 143.854796,73.6377467 C149.387633,65.3405358 150.079432,77.0603462 152.845591,71.200441 C155.612269,65.3405358 160.453307,55.2801676 162.528186,59.428773 C164.603064,63.5773785 162.182545,67.0518355 165.986144,63.2662331 C169.790261,59.428773 170.481541,56.6803219 173.248219,57.3544703 C177.397977,58.7546246 167.715382,71.8745894 168.752822,75.3490464 C169.790261,78.8235035 173.248219,72.9117407 173.248219,77.0603462 C173.248219,82.246103 159.415868,104.026282 159.415868,102.626127 C159.070227,97.129225 156.995349,93.291765 155.612269,100.551824 C154.92047,103.352133 151.808152,92.2546136 144.200436,91.9434682 C136.247081,91.2174622 135.555282,94.0177709 135.555282,94.0177709 Z"/>
    <path fill="#E897A3" d="M265.578245,146.186484 C264.886965,145.823481 255.895651,141.674876 251.054613,146.186484 C246.904856,149.660941 244.138697,148.62379 244.484337,150.33509 C245.521776,153.446544 250.017174,153.757689 250.017174,153.757689 C250.017174,153.757689 245.175617,151.009238 241.026379,153.446544 C237.567902,155.520847 235.839182,155.831992 235.839182,158.943446 C235.839182,163.455055 238.9515,164.492206 238.9515,164.492206 C238.9515,164.492206 235.493542,162.0549 236.184822,168.277808 C236.530462,171.389262 239.29714,173.463565 239.29714,173.463565 C239.29714,173.463565 236.530462,172.426414 237.914061,177.301025 C239.29714,181.449631 242.063818,182.123779 242.063818,182.123779 C242.063818,182.123779 239.29714,185.235233 246.213057,187.983684 C253.129492,190.732135 266.270044,193.843589 275.260839,186.946533 C284.252153,180.049476 287.363953,175.226723 287.363953,175.226723 C287.363953,175.226723 276.643919,170.040966 269.728003,159.669452 C266.615685,154.120692 265.578245,146.186484 265.578245,146.186484 Z"/>
    <path stroke="#600" stroke-linejoin="round" stroke-width="1.244" d="M254.512571 151.009238C254.512571 151.009238 255.204371 152.720538 251.746413 153.083541 248.288454 153.083541 245.867417 152.409393 245.867417 152.409393M109.965976 374.256069C109.965976 374.256069 126.910646 377.00452 148.696353 401.896153 161.836905 417.09042 161.491265 424.661625 161.491265 424.661625M247.942295 276.089692C235.493542 287.135354 219.240672 302.018476 211.978596 309.952684 198.838044 323.435652 201.950362 335.518465 201.950362 340.393077M262.120287 262.969728C262.120287 262.969728 259.354128 266.081182 254.166931 270.59279M103.05006 325.509955C103.05006 325.509955 105.124938 332.770014 112.732654 331.36986 122.069089 329.65856 128.985524 316.538596 128.985524 316.538596M48.4124523 188.657833C48.4124523 188.657833 57.4032473 183.523933 69.8525195 187.309536 76.7684358 189.383839 78.8433145 194.880741 78.8433145 194.880741M285.635233 105.063433C285.635233 105.063433 275.953158 106.463587 271.8034 118.909404 268.691082 127.880763 269.728522 132.703517 269.728522 132.703517"/>
    <path stroke="#600" stroke-linejoin="round" stroke-width="1.244" d="M269.728522,105.737581 C269.728522,105.737581 267.653643,109.575041 267.308003,115.434947 C267.308003,121.969 270.074162,125.443457 270.074162,125.443457"/>
    <path stroke="#000" stroke-linejoin="round" stroke-width="1.244" d="M251.746413 68.7631353C306.72966 55.6431705 352.721593 79.4976519 347.536992 111.286341 343.732874 134.103671 327.478447 142.712027 306.72966 158.269298M119.99421 3.67705866e-13C119.99421 3.67705866e-13 109.620336 7.62306251 100.975181 15.5572704M85.4135907 31.1145408C85.4135907 31.1145408 59.478126 62.9032301 49.1042515 81.9349576M391.453008 176.263874C391.453008 176.263874 394.90941 195.917892 375.546297 243.263852 370.704221 255.346665 357.563669 279.927152 357.563669 279.927152M350.993393 321.724352C350.993393 321.724352 382.116573 302.018476 405.631519 220.446522M224.77299 421.239025C224.77299 421.239025 329.206648 403.970455 397.675569 321.724352M17.2897908 315.138441C17.2897908 315.138441 5.53231788 324.835806 4.14923841 345.578834M4.14923841 366.996009C4.14923841 366.996009 7.95335568 403.244449 38.729858 426.735928M95.7879842 464.073377C95.7879842 464.073377 112.732654 481.341947 138.668119 477.919347 164.603583 474.44489 177.744136 456.139169 177.744136 456.139169"/>
    <path stroke="#600" stroke-linejoin="round" stroke-width="1.244" d="M204.025241,350.038585 C204.025241,350.038585 209.212437,360.047095 202.296521,381.516128 C193.305207,410.867512 170.13642,430.884533 170.13642,430.884533"/>
    <path stroke="#000" stroke-linejoin="round" stroke-width="1.244" d="M18.6733893,171.389262 C23.1687868,162.780906 28.0098244,153.757689 32.851381,145.149333 C50.1416908,114.760798 68.8150801,86.7577114 88.8715489,60.8289274"/>
    <polygon fill="#E2603D" points="0 215.624 16.945 200.43 1.729 190.732"/>
    <line x1="15.215" x2="7.953" y1="188.658" y2="203.904" stroke="#000" stroke-linejoin="round" stroke-width="1.244"/>
    <line x1="13.141" x2="4.841" y1="180.412" y2="198.718" stroke="#000" stroke-linejoin="round" stroke-width="1.244"/>
  </g>
</svg>
