<?xml version="1.0" encoding="UTF-8"?>
<svg width="81px" height="80px" viewBox="0 0 81 80" version="1.1" xmlns="http://www.w3.org/2000/svg" xmlns:xlink="http://www.w3.org/1999/xlink">
    <!-- Generator: Sketch 64 (93537) - https://sketch.com -->
    <title>Subscribe – 2</title>
    <desc>Created with Sketch.</desc>
    <g id="OTHER" stroke="none" stroke-width="1" fill="none" fill-rule="evenodd">
        <path d="M51.6185156,28.4660507 C51.3962477,28.2409418 51.0945975,28.1144499 50.7800391,28.1144499 C50.4654806,28.1144499 50.1638304,28.2409418 49.9415625,28.4660507 L29.0935547,49.5504861 C28.7761151,49.8496338 28.6454456,50.300162 28.752808,50.725328 C28.8601704,51.150494 29.1884413,51.4824877 29.6088398,51.5910676 C30.0292383,51.6996476 30.4747145,51.5674963 30.7705078,51.2464567 L51.6185156,30.1620214 C51.8411004,29.9372328 51.9661738,29.6321617 51.9661738,29.314036 C51.9661738,28.9959104 51.8411004,28.6908393 51.6185156,28.4660507 L51.6185156,28.4660507 Z M33.5517188,38.7986799 C36.2988967,38.7969452 38.6623338,36.8329297 39.1967297,34.1076699 C39.7311255,31.3824102 38.2876547,28.6548713 35.7490355,27.593011 C33.2104162,26.5311508 30.2836358,27.4306897 28.758493,29.7415373 C27.2333502,32.0523849 27.5345865,35.1309868 29.4779883,37.0947015 C30.557777,38.1880201 32.0237706,38.8012197 33.5517188,38.7986799 L33.5517188,38.7986799 Z M31.1549414,30.5508147 C32.1240627,29.5705441 33.5816508,29.2772307 34.8479927,29.8076544 C36.1143346,30.3380782 36.940027,31.5877732 36.940027,32.9739727 C36.940027,34.3601723 36.1143346,35.6098673 34.8479927,36.1402911 C33.5816508,36.6707148 32.1240627,36.3774014 31.1549414,35.3971308 C30.5179989,34.7552688 30.1599762,33.8833332 30.1599762,32.9739727 C30.1599762,32.0646123 30.5179989,31.1926767 31.1549414,30.5508147 L31.1549414,30.5508147 Z M77.8248633,34.8707399 C76.7791406,33.8595574 75.6986133,32.8131755 75.4992773,31.9299908 C75.2872852,30.9860071 75.8251758,29.5300323 76.3456641,28.1188567 C77.0876367,26.1076915 77.8549219,24.0277275 77.002207,22.2405584 C76.1336719,20.4229898 74.0232422,19.7302018 71.9824219,19.0582134 C70.5854883,18.5990214 69.1426758,18.1254295 68.5652344,17.3942422 C67.987793,16.6630548 67.8422461,15.1206815 67.7077734,13.6359072 C67.5052734,11.4823444 67.3043555,9.25678292 65.7523828,8.00240461 C64.2004102,6.74802631 62.0251172,7.04242122 59.9115234,7.33361618 C58.4433984,7.53041278 56.9246484,7.73360926 56.0719336,7.31921643 C55.2508594,6.91762338 54.4756641,5.61044598 53.7273633,4.34486787 C52.6199414,2.47610019 51.4745508,0.541733642 49.51125,0.0905414449 C47.6128125,-0.344651029 45.7950586,0.868127997 44.0310938,2.03930774 C42.776543,2.88249316 41.4792773,3.73847836 40.5,3.73847836 C39.5207227,3.73847836 38.223457,2.88249316 36.9689063,2.04250769 C35.2049414,0.871327942 33.3808594,-0.339851112 31.4824219,0.0937413895 C29.5191211,0.544933586 28.3737305,2.47930013 27.2663086,4.34806781 C26.5180078,5.61364593 25.7428125,6.92082332 24.9217383,7.32241637 C24.0690234,7.73680921 22.5486914,7.53361272 21.0821484,7.33681613 C18.9685547,7.05362102 16.7837695,6.75922611 15.2412891,8.00560456 C13.6988086,9.251983 13.4947266,11.4823444 13.2985547,13.6343072 C13.164082,15.1190815 13.0248633,16.653455 12.4410938,17.3926422 C11.8573242,18.1318294 10.4208398,18.5974214 9.02390625,19.0566134 C6.98308594,19.7270018 4.87265625,20.4213898 4.00412109,22.2389584 C3.15140625,24.0261275 3.91869141,26.1060915 4.66066406,28.1172567 C5.18115234,29.5268324 5.71904297,30.9844072 5.50705078,31.9283908 C5.30771484,32.8115756 4.2271875,33.8579575 3.18146484,34.86914 C1.61683594,36.3827138 0,37.9474867 0,40.0018512 C0,42.0562157 1.61683594,43.6209886 3.18146484,45.1345624 C4.2271875,46.145745 5.30771484,47.1921269 5.50705078,48.0753116 C5.71904297,49.0192953 5.18115234,50.4752701 4.66066406,51.8864457 C3.91869141,53.8976109 3.15140625,55.9775749 4.00412109,57.764744 C4.87265625,59.5823126 6.98308594,60.2751006 9.01757812,60.947089 C10.4145117,61.406281 11.8573242,61.8798728 12.4347656,62.6110602 C13.012207,63.3422476 13.1577539,64.8846209 13.2922266,66.3693952 C13.4883984,68.521358 13.6893164,70.7469195 15.2412891,71.9980979 C16.7932617,73.2492762 18.9685547,72.9500814 21.0821484,72.6668863 C22.5502734,72.4700897 24.0690234,72.2668932 24.9217383,72.681286 C25.7428125,73.0828791 26.5180078,74.3900565 27.2663086,75.6556346 C28.3737305,77.5244023 29.5191211,79.4587688 31.4824219,79.909961 C31.7467781,79.9696058 32.0168209,80 32.2876758,80 C33.8934375,80 35.4517383,78.9659773 36.9625781,77.9611947 C38.2171289,77.1276091 39.5143945,76.2652241 40.4936719,76.2652241 C41.4729492,76.2652241 42.7702148,77.1276091 44.0247656,77.9611947 C45.7887305,79.1323745 47.6112305,80.3435535 49.5049219,79.909961 C51.4682227,79.4587688 52.6136133,77.5244023 53.7210352,75.6556346 C54.4693359,74.3900565 55.2445312,73.0828791 56.0656055,72.681286 C56.9183203,72.2668932 58.4386523,72.4700897 59.9051953,72.6668863 C62.0187891,72.9500814 64.2035742,73.2444763 65.7460547,71.9980979 C67.2885352,70.7517194 67.4989453,68.521358 67.6951172,66.3693952 C67.8295898,64.8846209 67.9688086,63.3502474 68.5525781,62.6110602 C69.1363477,61.871873 70.572832,61.406281 71.9697656,60.947089 C74.0105859,60.2767006 76.1210156,59.5823126 76.9895508,57.764744 C77.8422656,55.9775749 77.0749805,53.8976109 76.3330078,51.8864457 C75.8125195,50.47687 75.2746289,49.0192953 75.4866211,48.0753116 C75.685957,47.1921269 76.7664844,46.145745 77.812207,45.1345624 C79.3831641,43.6209886 81,42.0562157 81,40.0018512 C81,37.9474867 79.3831641,36.3827138 77.8185352,34.86914 L77.8248633,34.8707399 Z M76.1842969,43.4017924 C74.8854492,44.6593707 73.5423047,45.9617481 73.1863477,47.5441208 C72.8161523,49.1888923 73.4806055,50.9872612 74.1213281,52.7280311 C74.6908594,54.2672045 75.277793,55.859177 74.8648828,56.7279619 C74.4377344,57.6223465 72.8161523,58.1551373 71.2483594,58.6703283 C69.5207812,59.2399185 67.7330859,59.8271083 66.7110937,61.119886 C65.6891016,62.4126636 65.510332,64.3198306 65.3442187,66.1565989 C65.1939258,67.8077703 65.0404688,69.5165408 64.2795117,70.1293302 C63.5185547,70.7421196 61.8510937,70.5117236 60.2295117,70.2893274 C58.4149219,70.0461316 56.5402148,69.794936 55.0483594,70.5213234 C53.5865625,71.2349111 52.6262695,72.855683 51.6976172,74.4236559 C50.8464844,75.863631 49.966875,77.3468054 48.9923437,77.5708015 C48.0826758,77.7803979 46.6889062,76.8524139 45.3410156,75.9564294 C43.7953711,74.9292472 42.1959375,73.8668655 40.5063281,73.8668655 C38.8167187,73.8668655 37.2172852,74.9292472 35.6716406,75.9564294 C34.32375,76.8524139 32.9283984,77.7787979 32.0203125,77.5708015 C31.0457812,77.3468054 30.1661719,75.8604311 29.3150391,74.4236559 C28.3863867,72.855683 27.4260937,71.2349111 25.9642969,70.5213234 C25.2254883,70.1613296 24.3933398,70.0413317 23.5216406,70.0413317 C22.6044614,70.0639307 21.6897028,70.1467704 20.7831445,70.2893274 C19.1615625,70.5069236 17.4861914,70.7309198 16.7331445,70.1293302 C15.9800977,69.5277406 15.8203125,67.8013704 15.6621094,66.150199 C15.5039062,64.3214306 15.3235547,62.4142636 14.2952344,61.121486 C13.2669141,59.8287083 11.4855469,59.2335186 9.75796875,58.6639285 C8.19017578,58.1487374 6.56859375,57.6159466 6.14144531,56.7215621 C5.72853516,55.857577 6.31546875,54.2656045 6.885,52.7216312 C7.5178125,50.9808613 8.19017578,49.1824924 7.81998047,47.5377209 C7.46402344,45.9521483 6.12087891,44.6577707 4.82203125,43.3953925 C3.61810547,42.2418125 2.37304688,41.0306334 2.37304688,40.0018512 C2.37304688,38.973069 3.61810547,37.7618899 4.82203125,36.60351 C6.12087891,35.3459317 7.46402344,34.0435543 7.82789063,32.4611816 C8.19808594,30.8164101 7.53363281,29.0180412 6.89291016,27.2772713 C6.32337891,25.7380979 5.73644531,24.1461254 6.14935547,23.2773404 C6.57650391,22.3829559 8.20599609,21.8501651 9.76587891,21.334974 C11.493457,20.7653839 13.2811523,20.178194 14.3031445,18.8854164 C15.3251367,17.5926388 15.5039062,15.6902717 15.6621094,13.8535034 C15.8203125,12.202332 15.9658594,10.4935615 16.7268164,9.88077213 C17.4877734,9.26798273 19.1552344,9.49837874 20.7768164,9.7207749 C22.5914062,9.96397069 24.4661133,10.2151663 25.9579688,9.48877891 C27.4197656,8.77519125 28.3800586,7.15441928 29.3087109,5.5864464 C30.1598438,4.1464713 31.0394531,2.66329695 32.0139844,2.43930082 C32.9236523,2.22970445 34.3174219,3.1576884 35.6653125,4.05367291 C37.210957,5.08085514 38.8103906,6.14323677 40.5,6.14323677 C42.1896094,6.14323677 43.789043,5.08085514 45.3346875,4.05367291 C46.6825781,3.1576884 48.0763477,2.23130442 48.9860156,2.43930082 C49.9605469,2.66329695 50.8401562,4.14967125 51.6912891,5.5864464 C52.6199414,7.15441928 53.5802344,8.77519125 55.0420313,9.48877891 C56.5338867,10.2151663 58.4101758,9.96877061 60.2231836,9.7207749 C61.8447656,9.50317866 63.5201367,9.27758256 64.2731836,9.88077213 C65.0262305,10.4839617 65.1875977,12.202332 65.3378906,13.8535034 C65.5040039,15.6902717 65.6764453,17.5894388 66.7047656,18.8902163 C67.7330859,20.1909938 69.5144531,20.7701838 71.2420313,21.339774 C72.8098242,21.854965 74.4314063,22.3877558 74.8585547,23.2821404 C75.2714648,24.1461254 74.6845313,25.7380979 74.115,27.2820712 C73.4742773,29.0228411 72.8098242,30.82121 73.1800195,32.4659815 C73.5359766,34.0515541 74.8791211,35.3459317 76.1779688,36.6083099 C77.3818945,37.7618899 78.6269531,38.973069 78.6269531,40.0018512 C78.6269531,41.0306334 77.3818945,42.2418125 76.1779687,43.4001924 L76.1842969,43.4017924 Z M40.5,11.3863461 C24.8980078,11.3863461 12.2053711,24.2229241 12.2053711,40.0018512 C12.2053711,55.7807783 24.8980078,68.6173563 40.5,68.6173563 C56.1019922,68.6173563 68.7946289,55.7807783 68.7946289,40.0018512 C68.7946289,24.2229241 56.1019922,11.3863461 40.5,11.3863461 Z M40.5,66.2173978 C26.2063477,66.2173978 14.578418,54.4576012 14.578418,40.0018512 C14.578418,25.5461012 26.2063477,13.7863046 40.5,13.7863046 C54.7936523,13.7863046 66.421582,25.5461012 66.421582,40.0018512 C66.421582,54.4576012 54.7936523,66.2173978 40.5,66.2173978 Z M43.3745508,42.9090009 C41.7264371,44.5754389 41.2332536,47.0818786 42.12499,49.2594735 C43.0167265,51.4370684 45.1177526,52.8569341 47.4482813,52.8569341 C49.7788099,52.8569341 51.879836,51.4370684 52.7715725,49.2594735 C53.6633089,47.0818786 53.1701254,44.5754389 51.5220117,42.9090009 C49.2709247,40.6366268 45.6256378,40.6366268 43.3745508,42.9090009 Z M49.8450586,49.4528878 C48.8759373,50.4331583 47.4183492,50.7264717 46.1520073,50.196048 C44.8856654,49.6656242 44.059973,48.4159292 44.059973,47.0297297 C44.059973,45.6435301 44.8856654,44.3938351 46.1520073,43.8634114 C47.4183492,43.3329876 48.8759373,43.626301 49.8450586,44.6065716 C51.1664295,45.9456384 51.1664295,48.1138209 49.8450586,49.4528878 Z" id="Subscribe-–-2" fill="#262C31" fill-rule="nonzero"></path>
    </g>
</svg>