<svg xmlns="http://www.w3.org/2000/svg" viewBox="0 0 339 620" width="339" height="620">
	<defs>
		<clipPath clipPathUnits="userSpaceOnUse" id="cp1">
			<path d="M94.92 -76L339 -76L339 620L0 620L94.92 -76Z" />
		</clipPath>
		<clipPath clipPathUnits="userSpaceOnUse" id="cp2">
			<path d="M94.92 -76L339 -76L339 620L0 620L94.92 -76Z" />
		</clipPath>
	</defs>
	<style>
		tspan { white-space:pre }
		.shp0 { fill: #f8fbff } 
		.shp1 { fill: #aad5ff } 
		.shp2 { fill: none;stroke: #c3e4ff;stroke-width: 4.825 } 
		.shp3 { fill: #c3e4ff } 
		.shp4 { fill: #d6eeff } 
		.shp5 { fill: #e8f6ff } 
		.shp6 { fill: none;stroke: #e8f6ff;stroke-width: 5.825 } 
		.shp7 { fill: none;stroke: #e8f6ff;stroke-linejoin:bevel;stroke-width: 7.169 } 
		.shp8 { fill: none;stroke: #e8f6ff;stroke-width: 3.136 } 
		.shp9 { fill: none;stroke: #d6eeff;stroke-linecap:round;stroke-width: 8.961 } 
		.shp10 { fill: #ffc100 } 
		.shp11 { fill: none;stroke: #000000;stroke-width: 3.584 } 
		.shp12 { fill: #000000 } 
		.shp13 { fill: #f9d0b5 } 
		.shp14 { fill: none;stroke: #000000;stroke-width: 1.195 } 
		.shp15 { fill: none;stroke: #f38c01;stroke-width: 1.593 } 
		.shp16 { fill: #ff77ca } 
		.shp17 { fill: #cbcbcf } 
		.shp18 { fill: none;stroke: #b8b8b9;stroke-linecap:round;stroke-width: 1.195 } 
		.shp19 { fill: #e3e3e9 } 
		.shp20 { fill: #ededef } 
		.shp21 { fill: none;stroke: #b8b8b9;stroke-linecap:square;stroke-width: 1.195 } 
		.shp22 { fill: #d3d3d9 } 
		.shp23 { fill: none;stroke: #505155;stroke-linecap:round;stroke-width: 1.195 } 
		.shp24 { fill: #f2f2f4 } 
		.shp25 { fill: none;stroke: #505155;stroke-linecap:square;stroke-width: 1.195 } 
		.shp26 { fill: #ffffff } 
		.shp27 { fill: #222229 } 
		.shp28 { fill: #bcbcbd } 
		.shp29 { fill: #d0d0d4 } 
		.shp30 { fill: #1b1c21 } 
		.shp31 { fill: #52555b } 
		.shp32 { fill: #8b8c98 } 
		.shp33 { fill: #6ca1ff } 
	</style>
	<g id="Template">
		<g id="subscribe-to-our-newsletter-desk">
			<path id="path-1" class="shp0" d="M94.92 -76L339 -76L339 620L0 620L94.92 -76Z" />
			<g id="Clip-Path: BG" clip-path="url(#cp1)">
				<g id="BG" style="opacity: 0.451">
					<g id="Layer">
						<path id="Fill-28" class="shp1" d="M68.11 357.03L322.46 357.03L449.63 210.41L195.29 210.41L68.11 357.03Z" />
						<path id="Fill-29" class="shp1" d="M576.97 357.03L322.62 357.03L195.45 210.41L449.79 210.41L576.97 357.03Z" />
						<path id="Stroke-33" class="shp2" d="M326.17 210.41L453.35 357.03" />
						<path id="Stroke-34" class="shp2" d="M292.58 210.41L419.75 357.03" />
						<path id="Stroke-35" class="shp2" d="M225.39 210.41L352.57 357.03" />
						<path id="Stroke-36" class="shp2" d="M258.99 210.41L386.16 357.03" />
						<path id="Fill-37" class="shp3" d="M86.35 589.46L326.24 589.46L326.24 357.03L86.35 357.03L86.35 589.46Z" />
						<path id="Fill-38" class="shp3" d="M326.24 357.03L86.35 357.03L206.29 218.74L326.24 357.03Z" />
						<path id="Fill-39" fill-rule="evenodd" class="shp4" d="M130.86 386.67L130.86 386.67C123.44 386.67 117.42 392.69 117.42 400.12L117.42 545.84L144.29 545.84L144.29 400.12C144.29 392.69 138.28 386.67 130.86 386.67Z" />
						<path id="Fill-40" fill-rule="evenodd" class="shp4" d="M288.89 386.67L288.89 386.67C281.47 386.67 275.45 392.69 275.45 400.12L275.45 545.84L302.33 545.84L302.33 400.12C302.33 392.69 296.31 386.67 288.89 386.67Z" />
						<path id="Fill-41" class="shp4" d="M326.24 589.46L566.12 589.46L566.12 357.03L326.24 357.03L326.24 589.46Z" />
						<path id="Fill-52" class="shp4" d="M166.17 587.25L246.41 587.25L246.41 401.15L166.17 401.15L166.17 587.25Z" />
						<path id="Fill-53" fill-rule="evenodd" class="shp1" d="M116.75 542.92L116.75 400.12C116.75 394.31 121.47 389.59 127.27 389.59C133.08 389.59 137.8 394.31 137.8 400.12L137.8 542.92L116.75 542.92Z" />
						<path id="Fill-54" fill-rule="evenodd" class="shp5" d="M140.71 400.12L140.71 545.84L113.84 545.84L113.84 400.12C113.84 392.69 119.85 386.67 127.27 386.67C134.69 386.67 140.71 392.69 140.71 400.12ZM119.66 400.12L119.66 540.01L134.89 540.01L134.89 400.12C134.89 395.92 131.47 392.5 127.27 392.5C123.08 392.5 119.66 395.92 119.66 400.12Z" />
						<path id="Fill-55" fill-rule="evenodd" class="shp1" d="M274.78 542.92L274.78 400.12C274.78 394.31 279.5 389.59 285.31 389.59C291.11 389.59 295.83 394.31 295.83 400.12L295.83 542.92L274.78 542.92Z" />
						<path id="Fill-56" fill-rule="evenodd" class="shp5" d="M298.74 400.12L298.74 545.84L271.87 545.84L271.87 400.12C271.87 392.69 277.89 386.67 285.31 386.67C292.73 386.67 298.74 392.69 298.74 400.12ZM277.69 400.12L277.69 540.01L292.92 540.01L292.92 400.12C292.92 395.92 289.51 392.5 285.31 392.5C281.11 392.5 277.69 395.92 277.69 400.12Z" />
						<path id="Fill-68" fill-rule="evenodd" class="shp1" d="M233.86 308.23C233.86 323.47 221.52 335.83 206.29 335.83C191.06 335.83 178.72 323.47 178.72 308.23C178.72 293 191.06 280.64 206.29 280.64C221.52 280.64 233.86 293 233.86 308.23Z" />
						<path id="Stroke-69" fill-rule="evenodd" class="shp6" d="M233.86 308.23C233.86 323.47 221.52 335.83 206.29 335.83C191.06 335.83 178.72 323.47 178.72 308.23C178.72 293 191.06 280.64 206.29 280.64C221.52 280.64 233.86 293 233.86 308.23Z" />
						<path id="Stroke-70" class="shp6" d="M180.31 308.23L232.47 308.23" />
						<path id="Stroke-71" class="shp6" d="M206.29 280.64L206.29 335.83" />
						<path id="Stroke-72" class="shp6" d="M117.55 421.09L136.02 421.09" />
						<path id="Stroke-73" class="shp6" d="M118.52 452.35L135.06 452.35" />
						<path id="Stroke-74" class="shp6" d="M118.52 483.61L135.06 483.61" />
						<path id="Stroke-75" class="shp6" d="M117.55 514.87L136.02 514.87" />
						<path id="Stroke-76" class="shp6" d="M275.66 421.09L294.13 421.09" />
						<path id="Stroke-77" class="shp6" d="M276.63 452.35L293.16 452.35" />
						<path id="Stroke-78" class="shp6" d="M276.63 483.61L293.16 483.61" />
						<path id="Stroke-79" class="shp6" d="M275.66 514.87L294.13 514.87" />
						<path id="Fill-80" class="shp1" d="M184.48 512.49L228.13 512.49L228.13 470.5L184.48 470.5L184.48 512.49Z" />
						<path id="Fill-81" fill-rule="evenodd" class="shp5" d="M182.46 468.48L230.15 468.48L230.15 514.51L182.46 514.51L182.46 468.48ZM186.49 510.47L226.12 510.47L226.12 472.51L186.49 472.51L186.49 510.47Z" />
						<path id="Fill-82" class="shp5" d="M190.89 528.53L221.7 528.53L221.7 521.07L190.89 521.07L190.89 528.53Z" />
						<path id="Fill-83" class="shp1" d="M184.48 458.78L228.13 458.78L228.13 416.79L184.48 416.79L184.48 458.78Z" />
						<path id="Fill-84" fill-rule="evenodd" class="shp5" d="M182.46 414.77L230.15 414.77L230.15 460.8L182.46 460.8L182.46 414.77ZM186.49 456.77L226.12 456.77L226.12 418.81L186.49 418.81L186.49 456.77Z" />
						<path id="Fill-85" fill-rule="evenodd" class="shp1" d="M179.11 496.85C179.11 498.97 177.39 500.7 175.26 500.7C173.13 500.7 171.4 498.97 171.4 496.85C171.4 494.72 173.13 492.99 175.26 492.99C177.39 492.99 179.11 494.72 179.11 496.85Z" />
						<path id="Stroke-86" class="shp7" d="M68.11 359.28L195.45 212.65L322.62 359.28" />
						<g id="Group-90">
							<path id="Fill-88" class="shp1" d="M326.24 366.86L86.35 366.86" />
							<path id="Stroke-89" class="shp8" d="M326.24 366.86L86.35 366.86" />
						</g>
						<path id="Stroke-91" class="shp8" d="M86.35 358.35L326.24 358.35" />
						<path id="Stroke-92" class="shp8" d="M86.35 374.78L326.24 374.78" />
						<path id="Fill-93" class="shp1" d="M190.28 585.19L222.3 585.19L222.3 554.66L190.28 554.66L190.28 585.19Z" />
						<path id="Fill-94" class="shp5" d="M197.61 555.91L214.97 555.91L214.97 553.42L197.61 553.42L197.61 555.91Z" />
						<g id="Group-100">
							<path id="Fill-98" class="shp5" d="M850.09 587.38L65.64 587.38" />
							<path id="Stroke-99" class="shp9" d="M850.09 587.38L65.64 587.38" />
						</g>
					</g>
				</g>
			</g>
			<g id="Clip-Path: Man" clip-path="url(#cp2)">
				<g id="Man">
					<g id="Layer">
						<path id="Fill-105" fill-rule="evenodd" class="shp10" d="M231.21 419.85L229.61 395.14L208.84 391.46C208.84 391.46 215.22 360.25 222.3 354.03C228.92 348.21 234.56 342.8 253.68 341.91C274.17 340.95 284.69 342.29 295.13 350.27C303.28 356.5 311.87 386.35 311.87 386.35L285.71 389.13L286.43 419.85L231.21 419.85Z" />
						<path id="Stroke-107" class="shp11" d="M267.29 282.66L267.54 291.48L271.04 292.33L275.66 285.11" />
						<path id="Fill-109" fill-rule="evenodd" class="shp12" d="M223.43 299.94C223.43 299.94 213.55 317.1 230.31 319.08L223.43 299.94Z" />
						<path id="Fill-111" fill-rule="evenodd" class="shp13" d="M264.69 327.87L267.14 341.84L272.19 342.09C272.19 342.09 270.57 354.03 254.54 354.03C239.88 354.03 245.06 342.49 245.06 342.49L248.66 342.16L247.17 330.74" />
						<path id="Fill-113" fill-rule="evenodd" class="shp13" d="M251.34 336.74C251.34 336.74 234.43 340.33 230.62 338.95C230.62 338.95 225.7 322.63 226.71 310.45L239.06 295.91L261.92 294.57L267.21 314.75C267.93 311.09 278.13 305.27 281.76 312.78C286.44 322.46 267.9 330.33 267.9 330.33" />
						<path id="Fill-115" fill-rule="evenodd" class="shp12" d="M275.48 309.16C275.48 309.16 285.87 303.23 271.31 291.66C256.75 280.1 246.25 288.49 246.25 288.49C246.25 288.49 241.24 275.41 232.34 276.63C219.66 278.37 220.3 298.26 220.3 298.26C220.3 298.26 212.49 288.43 209.05 290.44C205.62 292.45 210.21 327.92 258.42 303.94C258.42 303.94 255.37 314.3 267.21 314.75C267.21 314.75 268.67 310.31 275.48 309.16Z" />
						<path id="Stroke-117" fill-rule="evenodd" class="shp14" d="M239.41 333.05C241.75 333.68 243.92 331.88 243.73 330.16" />
						<path id="Fill-119" class="shp12" d="M234.86 319.19L233.41 329.45L237.97 328.36L234.86 319.19Z" />
						<path id="Fill-121" fill-rule="evenodd" class="shp12" d="M238.78 320.53C238.87 321.84 240 322.83 241.31 322.74C242.62 322.65 243.6 321.52 243.51 320.21C243.43 318.9 242.29 317.91 240.98 318C239.68 318.09 238.69 319.22 238.78 320.53Z" />
						<path id="Fill-123" fill-rule="evenodd" class="shp12" d="M228.2 321.77C228.29 323.08 229.42 324.07 230.73 323.98C232.04 323.89 233.03 322.76 232.94 321.45C232.85 320.14 231.72 319.15 230.41 319.24C229.1 319.33 228.11 320.47 228.2 321.77Z" />
						<path id="Stroke-125" class="shp15" d="M229.07 392.51L227.36 370.53" />
						<path id="Stroke-127" class="shp15" d="M277.74 371.07L280.1 390.28L285.72 389.98" />
						<path id="Fill-129" fill-rule="evenodd" class="shp16" d="M269.82 423.61L285.85 400.83L285.71 389.13L308.58 386.7C308.58 386.7 311.08 391.47 310.22 397.09C307.76 413.18 275.87 436.64 275.87 436.64" />
						<path id="Stroke-131" class="shp14" d="M227.84 319.18L231.64 316.81" />
						<path id="Stroke-133" class="shp14" d="M242.1 317.67L237.89 316.17" />
						<path id="Fill-135" class="shp17" d="M68.55 622.01L66.14 610.11L99.89 602.47L125.2 566.27L110.74 549.21L145.69 530.48L152.92 497.09L144.08 473.06L162.96 462.5L158.94 444.4L169.92 437.38L175.58 424.06L171.81 421.33L182.53 404.87L189.44 406.6L187.47 399.42L211.44 377.85L235.36 391.98L239.29 385.28L260.6 392.92L271.79 392.25L289.01 395.67L311.61 381.71L314.02 397.35L330.49 397.35L341.74 413.74L339.33 422.28L360.62 444.4L367.45 466.52L363.83 473.06L383.12 494.51L399.59 515.96L397.58 525.25L420.48 559.03L418.07 568.68L426.72 592.82L453.57 607.03L445.94 622.01L68.55 622.01Z" />
						<path id="Stroke-137" class="shp18" d="M269.82 496.45L283.22 487.52" />
						<path id="Stroke-139" class="shp18" d="M291.89 487.52L305.29 496.45" />
						<path id="Stroke-141" class="shp18" d="M305.29 478.59L287.55 490.41L269.82 478.59" />
						<path id="Stroke-143" class="shp18" d="M157.29 569.63L173.19 567.14" />
						<path id="Stroke-145" class="shp18" d="M181.07 570.77L189.5 584.49" />
						<path id="Stroke-147" class="shp18" d="M196.97 568.28L175.92 571.58L164.76 553.41" />
						<path id="Stroke-149" class="shp18" d="M160.98 501.37L169.27 487.56" />
						<path id="Stroke-151" class="shp18" d="M177.11 483.84L193.03 486.17" />
						<path id="Stroke-153" class="shp18" d="M185.4 470.03L174.42 488.31L153.35 485.23" />
						<path id="Fill-155" class="shp19" d="M188.98 516.49L228.82 516.49L228.82 492.58L188.98 492.58L188.98 516.49Z" />
						<path id="Fill-157" class="shp20" d="M306.95 393.52L304.04 417.25L264.5 412.39L267.41 388.66L306.95 393.52Z" />
						<path id="Stroke-158" class="shp21" d="M119.23 613.54L133.03 609.08" />
						<path id="Stroke-159" class="shp21" d="M120.24 616.68L134.05 612.21" />
						<path id="Stroke-160" class="shp21" d="M123.53 618.79L132.61 615.85" />
						<path id="Stroke-161" fill-rule="evenodd" class="shp18" d="M143.78 607.49L143.29 607.65C141.84 608.12 140.29 607.33 139.82 605.88L139.66 605.39C139.19 603.94 139.99 602.38 141.43 601.91L141.92 601.75C143.37 601.28 144.93 602.08 145.39 603.53L145.55 604.02C146.02 605.47 145.23 607.02 143.78 607.49Z" />
						<path id="Fill-162" class="shp20" d="M182.8 527.5L179.89 551.23L140.35 546.37L143.26 522.64L182.8 527.5Z" />
						<path id="Fill-163" class="shp20" d="M236.73 419.49L248.64 440.22L214.12 460.11L202.2 439.39L236.73 419.49Z" />
						<path id="Stroke-164" class="shp21" d="M197.93 411.41L212.07 414.69" />
						<path id="Stroke-165" class="shp21" d="M197.19 414.62L211.32 417.9" />
						<path id="Stroke-166" class="shp21" d="M198.93 418.12L208.23 420.28" />
						<path id="Stroke-167" fill-rule="evenodd" class="shp18" d="M222.09 418.86L221.59 418.75C220.11 418.4 219.18 416.92 219.53 415.44L219.64 414.93C219.99 413.45 221.47 412.53 222.95 412.87L223.45 412.99C224.93 413.33 225.86 414.81 225.51 416.3L225.4 416.8C225.06 418.28 223.58 419.21 222.09 418.86Z" />
						<path id="Fill-168" class="shp20" d="M275.77 588.85L272.86 612.58L233.32 607.72L236.23 583.99L275.77 588.85Z" />
						<path id="Fill-169" class="shp20" d="M199.63 457.15L196.72 480.88L157.18 476.01L160.09 452.28L199.63 457.15Z" />
						<path id="Fill-170" class="shp20" d="M338.92 439.8L351.91 459.87L318.48 481.56L305.49 461.49L338.92 439.8Z" />
						<path id="Fill-171" class="shp22" d="M275.98 398.98L288.97 419.04L255.53 440.73L242.55 420.67L275.98 398.98Z" />
						<path id="Fill-172" class="shp20" d="M347.88 584.31L353.27 607.6L314.47 616.62L309.07 593.33L347.88 584.31Z" />
						<path id="Fill-174" class="shp20" d="M171.53 588.15L168.62 611.88L129.08 607.02L131.99 583.29L171.53 588.15Z" />
						<path id="Fill-175" class="shp20" d="M217.85 509.46L230.84 529.52L197.41 551.21L184.42 531.15L217.85 509.46Z" />
						<path id="Fill-176" class="shp19" d="M252.94 400.64L256.48 424.28L217.09 430.21L213.54 406.57L252.94 400.64Z" />
						<path id="Fill-177" class="shp19" d="M113.24 588.79L153.08 588.79L153.08 564.88L113.24 564.88L113.24 588.79Z" />
						<path id="Fill-178" class="shp19" d="M205.68 622.19L245.52 622.19L245.52 598.28L205.68 598.28L205.68 622.19Z" />
						<path id="Fill-184" class="shp19" d="M242.4 394.84L229.47 414.94L195.98 393.34L208.91 373.24L242.4 394.84Z" />
						<path id="Stroke-185" class="shp23" d="M199.66 391.66L215.75 391.41" />
						<path id="Stroke-186" class="shp23" d="M223.04 396.12L229.48 410.89" />
						<path id="Stroke-187" class="shp23" d="M239.14 395.87L217.83 396.19L209.32 376.65" />
						<path id="Fill-192" class="shp19" d="M246.58 466.94L250.38 490.55L211.05 496.89L207.25 473.29L246.58 466.94Z" />
						<path id="Stroke-193" class="shp23" d="M212.67 493.17L224.47 482.22" />
						<path id="Stroke-194" class="shp23" d="M233.04 480.84L247.68 487.52" />
						<path id="Stroke-195" class="shp23" d="M244.84 469.89L229.21 484.39L209.83 475.54" />
						<path id="Fill-196" class="shp19" d="M147.8 532.26L156.34 554.59L119.14 568.86L110.6 546.53L147.8 532.26Z" />
						<path id="Stroke-197" class="shp23" d="M119.96 564.88L129.28 551.75" />
						<path id="Stroke-198" class="shp23" d="M137.38 548.64L153.08 552.18" />
						<path id="Stroke-199" class="shp23" d="M146.7 535.51L134.36 552.9L113.58 548.21" />
						<path id="Fill-200" class="shp19" d="M348.37 465.66L324.52 464.35L326.45 429.17L350.29 430.48L348.37 465.66Z" />
						<path id="Stroke-201" class="shp23" d="M329.75 431.29L338 443.61" />
						<path id="Stroke-202" class="shp23" d="M337.58 451.27L328.03 462.61" />
						<path id="Stroke-203" class="shp23" d="M345.84 463.58L334.91 447.28L347.56 432.27" />
						<path id="Fill-204" class="shp19" d="M334.2 574.56L330.49 595.41L291.27 588.42L294.97 567.57L334.2 574.56Z" />
						<path id="Stroke-205" class="shp23" d="M293.95 585.82L308.52 580.39" />
						<path id="Stroke-206" class="shp23" d="M317.06 581.91L328.87 592.04" />
						<path id="Stroke-207" class="shp23" d="M331.64 576.48L312.34 583.67L296.72 570.26" />
						<path id="Fill-208" class="shp24" d="M202.55 429.56L207.29 452.99L168.25 460.91L163.5 437.48L202.55 429.56Z" />
						<path id="Stroke-209" class="shp25" d="M171.1 444.91L185.32 442.03" />
						<path id="Stroke-210" class="shp25" d="M171.76 448.14L185.98 445.26" />
						<path id="Stroke-211" class="shp25" d="M174.79 450.61L184.15 448.71" />
						<path id="Fill-212" class="shp26" d="M201.71 437.88L196.33 438.97L195.13 433.06L200.51 431.96L201.71 437.88Z" />
						<path id="Stroke-213" fill-rule="evenodd" class="shp25" d="M196.18 441.67L195.67 441.77C194.18 442.07 192.73 441.11 192.43 439.61L192.32 439.11C192.02 437.61 192.99 436.16 194.48 435.86L194.98 435.75C196.47 435.45 197.93 436.42 198.23 437.91L198.33 438.41C198.63 439.91 197.67 441.36 196.18 441.67Z" />
						<path id="Fill-220" class="shp24" d="M249.77 594.32L238.46 615.38L203.38 596.49L214.68 575.43L249.77 594.32Z" />
						<path id="Stroke-221" class="shp25" d="M215.79 586.01L228.56 592.89" />
						<path id="Stroke-222" class="shp25" d="M214.23 588.92L227 595.8" />
						<path id="Stroke-223" class="shp25" d="M214.98 592.75L223.39 597.28" />
						<path id="Fill-224" class="shp26" d="M243.81 600.18L238.98 597.58L241.83 592.26L246.67 594.87L243.81 600.18Z" />
						<path id="Stroke-225" fill-rule="evenodd" class="shp25" d="M237.14 599.56L236.69 599.31C235.35 598.59 234.85 596.92 235.57 595.58L235.81 595.12C236.53 593.78 238.2 593.28 239.54 594L240 594.24C241.34 594.97 241.84 596.64 241.12 597.98L240.87 598.43C240.15 599.78 238.48 600.28 237.14 599.56Z" />
						<path id="Fill-226" class="shp19" d="M118.83 593.65L113.44 616.94L74.63 607.94L80.02 584.65L118.83 593.65Z" />
						<path id="Stroke-227" class="shp25" d="M83.85 594.57L97.99 597.85" />
						<path id="Stroke-228" class="shp25" d="M83.11 597.78L97.24 601.06" />
						<path id="Stroke-229" class="shp25" d="M84.85 601.28L94.15 603.44" />
						<path id="Fill-230" class="shp26" d="M114.61 600.87L109.26 599.63L110.62 593.76L115.97 594.99L114.61 600.87Z" />
						<path id="Stroke-231" fill-rule="evenodd" class="shp25" d="M108.01 602.03L107.51 601.91C106.03 601.57 105.1 600.08 105.45 598.6L105.56 598.1C105.91 596.61 107.39 595.69 108.87 596.03L109.37 596.15C110.86 596.49 111.78 597.97 111.44 599.46L111.32 599.96C110.98 601.44 109.5 602.37 108.01 602.03Z" />
						<path id="Fill-232" class="shp19" d="M333.97 390.43L328.58 413.72L289.77 404.72L295.16 381.43L333.97 390.43Z" />
						<path id="Stroke-233" class="shp25" d="M299 391.35L313.13 394.63" />
						<path id="Stroke-234" class="shp25" d="M298.25 394.56L312.39 397.84" />
						<path id="Stroke-235" class="shp25" d="M299.99 398.06L309.29 400.22" />
						<path id="Fill-236" class="shp26" d="M329.76 397.65L324.41 396.41L325.77 390.53L331.12 391.77L329.76 397.65Z" />
						<path id="Stroke-237" fill-rule="evenodd" class="shp25" d="M323.16 398.81L322.66 398.69C321.17 398.35 320.25 396.86 320.59 395.38L320.71 394.88C321.05 393.39 322.53 392.47 324.02 392.81L324.52 392.93C326 393.27 326.92 394.75 326.58 396.24L326.46 396.74C326.12 398.22 324.64 399.15 323.16 398.81Z" />
						<path id="Stroke-238" class="shp21" d="M250.53 564.42L264.66 567.7" />
						<path id="Stroke-239" class="shp21" d="M249.78 567.64L263.92 570.91" />
						<path id="Stroke-240" class="shp21" d="M251.52 571.13L260.82 573.29" />
						<path id="Stroke-241" fill-rule="evenodd" class="shp18" d="M274.69 571.88L274.19 571.76C272.7 571.42 271.78 569.94 272.12 568.45L272.24 567.95C272.58 566.47 274.06 565.54 275.55 565.88L276.05 566C277.53 566.34 278.45 567.83 278.11 569.31L277.99 569.81C277.65 571.3 276.17 572.22 274.69 571.88Z" />
						<path id="Stroke-242" class="shp21" d="M265.31 422.42L279.44 425.7" />
						<path id="Stroke-243" class="shp21" d="M264.57 425.64L278.7 428.91" />
						<path id="Stroke-244" class="shp21" d="M266.3 429.13L275.6 431.29" />
						<path id="Stroke-245" fill-rule="evenodd" class="shp18" d="M289.47 429.88L288.97 429.76C287.49 429.42 286.56 427.94 286.91 426.45L287.02 425.95C287.37 424.47 288.85 423.54 290.33 423.88L290.83 424C292.31 424.35 293.24 425.83 292.89 427.31L292.78 427.81C292.43 429.3 290.95 430.22 289.47 429.88Z" />
						<path id="Fill-252" class="shp19" d="M308.14 443.01L317.44 465.04L280.75 480.57L271.45 458.55L308.14 443.01Z" />
						<path id="Fill-253" class="shp20" d="M269.87 534.77L266.96 558.5L227.42 553.64L230.33 529.91L269.87 534.77Z" />
						<path id="Fill-254" class="shp24" d="M267.36 502.83L281.32 522.24L249 545.55L235.04 526.15L267.36 502.83Z" />
						<path id="Stroke-255" class="shp25" d="M245.02 529.79L256.79 521.3" />
						<path id="Stroke-256" class="shp25" d="M246.95 532.46L258.72 523.98" />
						<path id="Stroke-257" class="shp25" d="M250.72 533.46L258.47 527.87" />
						<path id="Fill-258" class="shp26" d="M270.02 510.77L265.56 513.98L262.04 509.08L266.49 505.87L270.02 510.77Z" />
						<path id="Stroke-259" fill-rule="evenodd" class="shp25" d="M266.54 516.5L266.12 516.8C264.88 517.69 263.16 517.41 262.27 516.17L261.97 515.75C261.08 514.52 261.36 512.79 262.6 511.9L263.01 511.6C264.25 510.71 265.97 510.99 266.86 512.23L267.16 512.65C268.05 513.88 267.77 515.61 266.54 516.5Z" />
						<path id="Fill-260" class="shp22" d="M303.63 517.01L305.81 540.82L266.14 544.46L263.96 520.65L303.63 517.01Z" />
						<path id="Fill-261" class="shp22" d="M226.91 587.07L229.09 610.88L189.42 614.52L187.24 590.71L226.91 587.07Z" />
						<path id="Fill-262" class="shp22" d="M310.24 552.9L323.23 572.97L289.8 594.66L276.81 574.59L310.24 552.9Z" />
						<path id="Fill-263" class="shp22" d="M195.73 573.78L207.64 594.5L173.11 614.4L161.2 593.67L195.73 573.78Z" />
						<path id="Stroke-264" class="shp18" d="M299.23 542.69L309.1 529.97" />
						<path id="Stroke-265" class="shp18" d="M317.33 527.21L332.86 531.41" />
						<path id="Stroke-266" class="shp18" d="M327.2 514.48L314.13 531.33L293.57 525.76" />
						<path id="Fill-267" class="shp20" d="M346.04 493.35L352.02 516.5L313.46 526.5L307.47 503.35L346.04 493.35Z" />
						<path id="Fill-268" fill-rule="evenodd" class="shp27" d="M131.29 404.27L131.29 444.4L102.99 444.4L102.99 404.27C102.99 396.46 109.3 390.13 117.09 390.11L117.14 390.11L117.83 390.12C121.46 390.3 124.73 391.84 127.14 394.25C129.55 396.67 131.1 399.94 131.27 403.58C131.28 403.81 131.29 404.04 131.29 404.27Z" />
						<path id="Fill-269" class="shp28" d="M123.54 396.86L127.67 420.41L88.43 427.3L84.3 403.76L123.54 396.86Z" />
						<path id="Stroke-270" class="shp23" d="M90 423.56L101.65 412.45" />
						<path id="Stroke-271" class="shp23" d="M110.19 410.95L124.93 417.42" />
						<path id="Stroke-272" class="shp23" d="M121.84 399.83L106.42 414.54L86.91 405.97" />
						<path id="Fill-273" class="shp29" d="M81.73 429.21L121.57 429.21L121.57 405.3L81.73 405.3L81.73 429.21Z" />
						<path id="Stroke-274" class="shp23" d="M83.92 425.79L97.32 416.86" />
						<path id="Stroke-275" class="shp23" d="M105.99 416.86L119.39 425.79" />
						<path id="Stroke-276" class="shp23" d="M119.39 407.94L101.65 419.75L83.92 407.94" />
						<path id="Fill-277" class="shp29" d="M152.81 427.57L145.6 450.37L107.62 438.33L114.82 415.54L152.81 427.57Z" />
						<path id="Stroke-278" class="shp23" d="M110.73 435.74L126.19 431.27" />
						<path id="Stroke-279" class="shp23" d="M134.46 433.89L144.55 446.45" />
						<path id="Stroke-280" class="shp23" d="M149.93 429.43L129.46 435.34L116.11 418.71" />
						<path id="Fill-281" class="shp30" d="M86.2 622.01L90.42 622.01L90.42 444.4L86.2 444.4L86.2 622.01Z" />
						<path id="Fill-282" class="shp31" d="M81.99 622.01L86.2 622.01L86.2 444.4L81.99 444.4L81.99 622.01Z" />
						<path id="Fill-283" fill-rule="evenodd" class="shp32" d="M131.29 444.4L102.99 444.4L112.53 456.87C116.39 461.92 122.38 464.88 128.73 464.88L136.81 464.88C140.96 464.88 143.31 460.12 140.79 456.82L131.29 444.4Z" />
						<path id="Fill-284" class="shp19" d="M143.23 436.93L132.6 458.34L96.93 440.59L107.56 419.18L143.23 436.93Z" />
						<path id="Stroke-285" class="shp25" d="M109 429.72L121.99 436.19" />
						<path id="Stroke-286" class="shp25" d="M107.53 432.67L120.52 439.14" />
						<path id="Stroke-287" class="shp25" d="M108.41 436.48L116.96 440.73" />
						<path id="Fill-288" class="shp26" d="M137.46 442.98L132.55 440.54L135.23 435.13L140.15 437.58L137.46 442.98Z" />
						<path id="Stroke-289" fill-rule="evenodd" class="shp25" d="M130.78 442.57L130.32 442.34C128.95 441.67 128.4 440.01 129.07 438.65L129.3 438.18C129.98 436.82 131.63 436.26 133 436.94L133.46 437.17C134.82 437.85 135.38 439.51 134.7 440.87L134.47 441.33C133.79 442.7 132.14 443.25 130.78 442.57Z" />
						<path id="Fill-290" class="shp29" d="M117.02 421.78L114.02 445.5L74.5 440.5L77.5 416.78L117.02 421.78Z" />
						<path id="Stroke-291" class="shp23" d="M77.1 437.38L91.51 430.21" />
						<path id="Stroke-292" class="shp23" d="M100.11 431.3L112.28 441.84" />
						<path id="Stroke-293" class="shp23" d="M114.52 424.12L95.45 433.62L79.34 419.67" />
						<path id="Fill-294" fill-rule="evenodd" class="shp33" d="M117.09 390.11C109.3 390.13 102.99 396.46 102.99 404.27L102.99 444.4L46 444.4L46.88 404.32C46.88 396.47 53.23 390.11 61.07 390.11L117.09 390.11Z" />
						<path id="Fill-295" class="shp30" d="M81.99 444.4L81.99 453.99L86.2 464.88L86.2 444.4L81.99 444.4Z" />
						<path id="Fill-296" fill-rule="evenodd" class="shp30" d="M93.12 376.17L93.12 421.52L87.59 421.52L87.59 378.77L80.57 378.77L80.57 373.39L88.51 372.19C90.94 371.83 93.12 373.71 93.12 376.17Z" />
					</g>
				</g>
			</g>
		</g>
	</g>
</svg>